<?xml version="1.0" encoding="utf-8"?>
<svg width="942.977" height="106.16" viewBox="0 0 942.977 106.16" fill="none" stroke="none" version="1.1" xmlns:xlink="http://www.w3.org/1999/xlink" xmlns="http://www.w3.org/2000/svg">
  <g id="Group">
    <path id="Shape" d="M0 0L0 22.9091L31.5 22.9091L31.5 104.727L59.5227 104.727L59.5227 22.9091L91.0227 22.9091L91.0227 0L0 0L0 0ZM221.205 0L221.205 104.727L249.432 104.727L249.432 82.4318L253.676 77.0625L269.682 104.727L302 104.727L274.489 60.5966L301.182 26.1819L269.477 26.1819L250.455 52.5682L249.432 52.5682L249.432 0L221.205 0L221.205 0ZM88.3182 105.954C80.8182 105.954 74.6818 104.088 69.9091 100.355C65.1364 96.6221 62.75 90.8523 62.75 83.0454C62.75 77.2841 64.0284 72.6477 66.5852 69.1364C69.142 65.625 72.6023 63 76.9659 61.2614C81.3295 59.5227 86.2045 58.4658 91.5909 58.0908C98.2045 57.6136 102.892 56.9063 105.653 55.9688C108.415 55.0313 109.795 53.4204 109.795 51.1364L109.795 50.9318C109.795 48.8864 109.011 47.3181 107.443 46.2273C105.875 45.1364 103.864 44.5908 101.409 44.5908C98.7159 44.5908 96.5256 45.179 94.8381 46.3551C93.1506 47.5313 92.1364 49.3295 91.7955 51.75L65.8182 51.75C66.1591 46.9773 67.6847 42.571 70.3949 38.5313C73.1051 34.4915 77.0682 31.2528 82.2841 28.8153C87.5 26.3778 94.0114 25.1591 101.818 25.1591C109.318 25.1591 115.77 26.3011 121.173 28.5852C126.577 30.8693 130.736 33.9545 133.651 37.8408C136.565 41.7273 138.023 46.0908 138.023 50.9318L138.023 104.727L111.636 104.727L111.636 93.6818L111.023 93.6818C108.636 98.0795 105.534 101.224 101.716 103.116C97.8977 105.009 93.4318 105.954 88.3182 105.954L88.3182 105.954ZM97.5228 88.1591C100.727 88.1591 103.608 87.179 106.165 85.2188C108.722 83.2585 110 80.4886 110 76.9091L110 70.3636C107.205 71.5227 103.455 72.4773 98.75 73.2273C95.4773 73.7386 93.0909 74.7273 91.5909 76.1932C90.0909 77.6591 89.3409 79.3977 89.3409 81.4091C89.3409 83.5909 90.108 85.2614 91.6421 86.4204C93.1761 87.5796 95.1364 88.1591 97.5228 88.1591L97.5228 88.1591ZM190.341 51.75L216.318 51.75C215.977 43.4319 212.526 36.9204 205.963 32.2159C199.401 27.5114 190.443 25.1591 179.091 25.1591C167.875 25.1591 159.028 27.375 152.551 31.8069C146.074 36.2386 142.852 42.5454 142.886 50.7273C142.784 63.3069 150.761 71.0114 166.818 73.8409L180.727 76.2954C186.625 77.3864 189.625 79.2954 189.727 82.0227C189.693 83.6591 188.832 84.9204 187.145 85.8069C185.457 86.6932 183.318 87.1364 180.727 87.1364C177.523 87.1364 174.872 86.4631 172.776 85.1165C170.679 83.7699 169.443 81.8523 169.068 79.3636L141.046 79.3636C141.83 87.4091 145.605 93.8864 152.372 98.7954C159.139 103.705 168.523 106.159 180.523 106.159C187.784 106.159 194.253 105.043 199.929 102.81C205.605 100.577 210.088 97.4063 213.378 93.2983C216.668 89.1903 218.33 84.3409 218.364 78.75C218.261 67.4319 210.284 60.3409 194.432 57.4773L178.477 54.6136C175.477 54.0682 173.457 53.3011 172.418 52.3125C171.378 51.3239 170.875 50.25 170.909 49.0909C170.875 47.4546 171.727 46.1932 173.466 45.3069C175.205 44.4204 177.284 43.9773 179.705 43.9773C182.5 43.9773 184.921 44.6676 186.966 46.0483C189.011 47.429 190.136 49.3296 190.341 51.75L190.341 51.75Z" style="fill:#FFFFFF;mix-blend-mode:normal;" transform="translate(0 0.001)" />
    <path id="Path" d="M27.4091 1.02283L0 1.02283L0 79.5682L28.2272 79.5682L28.2272 38.6592C28.2272 34.1592 29.6079 30.5455 32.3693 27.8182C35.1307 25.0909 38.5909 23.7273 42.75 23.7273C44.2159 23.7273 45.9716 23.8467 48.017 24.0853C50.0624 24.3239 51.784 24.6819 53.1818 25.1592L53.1818 1.07385C50.7613 0.358032 48.3749 0 46.0227 0C41.8295 0 38.1733 1.27844 35.054 3.83533C31.9346 6.39209 29.6591 10.4319 28.2272 15.9546L27.4091 15.9546L27.4091 1.02283L27.4091 1.02283Z" style="fill:#FFFFFF;mix-blend-mode:normal;" transform="translate(889.796 25.16)" />
    <path id="Shape" d="M40.5 81C27.9205 81 18.0256 77.4291 10.8153 70.287C3.6051 63.1449 0 53.2159 0 40.5C0 32.3864 1.63635 25.2955 4.90906 19.2273C8.18182 13.1592 12.8011 8.4375 18.767 5.0625C24.7329 1.6875 31.7727 0 39.8864 0C47.7955 0 54.6733 1.61938 60.5199 4.85803C66.3665 8.09668 70.9005 12.7245 74.1221 18.7416C77.3438 24.7585 78.9545 31.9432 78.9545 40.2955L78.9545 46.8409L27.8182 46.8409L27.8182 48.0682C27.8182 51.8523 28.9858 54.9801 31.321 57.4518C33.6563 59.9233 36.9205 61.1592 41.1136 61.1592C44.0114 61.1592 46.5426 60.5541 48.7074 59.3438C50.8721 58.1335 52.3636 56.4205 53.1818 54.2046L78.9545 54.2046C77.625 62.3864 73.6108 68.8978 66.9119 73.7386C60.2131 78.5796 51.4091 81 40.5 81L40.5 81ZM27.8182 31.2955L52.9772 31.2955C52.9091 27.9205 51.6903 25.1676 49.321 23.037C46.9517 20.9063 44.0114 19.8409 40.5 19.8409C37.0568 19.8409 34.0994 20.8977 31.6278 23.0114C29.1562 25.125 27.8864 27.8864 27.8182 31.2955L27.8182 31.2955Z" style="fill:#FFFFFF;mix-blend-mode:normal;" transform="translate(807.387 25.16)" />
    <path id="Path" d="M18.8182 75.912C24.8864 79.3041 32.1818 81 40.7045 81C52.3295 81 61.5085 77.9063 68.2415 71.7188C74.9744 65.5313 78.4091 57.2386 78.5455 46.8409L52.3636 46.8409C52.0568 50.9659 50.8807 54.1108 48.8352 56.2756C46.7897 58.4404 44.2159 59.5228 41.1136 59.5228C37.3977 59.5228 34.4233 57.9291 32.1903 54.7416C29.9573 51.5541 28.8409 46.7386 28.8409 40.2955C28.8409 33.8523 29.9573 29.037 32.1903 25.8495C34.4233 22.662 37.3977 21.0682 41.1136 21.0682C44.25 21.0682 46.8153 22.1506 48.8096 24.3154C50.804 26.4801 51.9886 29.625 52.3636 33.75L78.5455 33.75C78.5114 26.9319 76.9432 20.9916 73.8409 15.9291C70.7386 10.8666 66.3665 6.94604 60.7244 4.1676C55.0824 1.38928 48.4091 0 40.7045 0C32.1818 0 24.8864 1.69604 18.8182 5.08813C12.75 8.4801 8.09656 13.2188 4.85791 19.3041C1.61932 25.3893 0 32.4546 0 40.5C0 48.5455 1.61932 55.6108 4.85791 61.696C8.09656 67.7813 12.75 72.5199 18.8182 75.912L18.8182 75.912Z" style="fill:#FFFFFF;mix-blend-mode:normal;" transform="translate(656.977 25.16)" />
    <path id="Shape" d="M25.5682 80.7955C18.0682 80.7955 11.9318 78.9291 7.15906 75.196C2.38635 71.4631 0 65.6932 0 57.8864C0 52.125 1.27838 47.4887 3.83521 43.9773C6.39203 40.4659 9.85223 37.8409 14.2159 36.1023C18.5795 34.3636 23.4545 33.3069 28.8409 32.9319C35.4545 32.4546 40.142 31.7472 42.9034 30.8097C45.6647 29.8722 47.0454 28.2614 47.0454 25.9773L47.0454 25.7728C47.0454 23.7273 46.2614 22.1592 44.6932 21.0682C43.125 19.9773 41.1136 19.4319 38.6591 19.4319C35.9659 19.4319 33.7756 20.0199 32.0881 21.196C30.4006 22.3722 29.3864 24.1705 29.0454 26.5909L3.06818 26.5909C3.40906 21.8182 4.93463 17.412 7.64484 13.3722C10.3551 9.3324 14.3182 6.09375 19.5341 3.65625C24.7499 1.21875 31.2614 0 39.0682 0C46.5682 0 53.0199 1.14209 58.4233 3.42615C63.8267 5.71033 67.9858 8.79553 70.9006 12.6819C73.8153 16.5682 75.2727 20.9319 75.2727 25.7728L75.2727 79.5682L48.8864 79.5682L48.8864 68.5228L48.2727 68.5228C45.8864 72.9205 42.7841 76.0654 38.9659 77.9574C35.1477 79.8495 30.6818 80.7955 25.5682 80.7955L25.5682 80.7955ZM34.7728 63C37.9773 63 40.858 62.0199 43.4148 60.0597C45.9716 58.0995 47.2501 55.3296 47.2501 51.75L47.2501 45.2046C44.4546 46.3636 40.7046 47.3182 36.0001 48.0682C32.7273 48.5796 30.3409 49.5682 28.8409 51.0342C27.3409 52.5 26.5909 54.2386 26.5909 56.25C26.5909 58.4319 27.358 60.1023 28.8921 61.2614C30.4262 62.4205 32.3864 63 34.7728 63L34.7728 63Z" style="fill:#FFFFFF;mix-blend-mode:normal;" transform="translate(578.068 25.16)" />
    <path id="Path" d="M0 0L0 104.727L28.2272 104.727L28.2272 82.4318L32.4716 77.0625L48.4772 104.727L80.7954 104.727L53.2841 60.5966L79.9772 26.1819L48.2727 26.1819L29.25 52.5682L28.2272 52.5682L28.2272 0L0 0L0 0Z" style="fill:#FFFFFF;mix-blend-mode:normal;" transform="translate(739.182 0.001)" />
    <path id="Path" d="M28.2272 104.727L28.2272 60.5454C28.2614 56.6591 29.3182 53.6079 31.3977 51.3921C33.4772 49.1761 36.2386 48.0682 39.6818 48.0682C43.2954 48.0682 46.0823 49.1761 48.0426 51.3921C50.0028 53.6079 50.9659 56.6591 50.9318 60.5454L50.9318 104.727L79.1591 104.727L79.1591 54.6136C79.1932 48.8864 78.0767 43.8069 75.8096 39.375C73.5426 34.9432 70.3551 31.4659 66.2471 28.9432C62.1392 26.4204 57.3068 25.1591 51.75 25.1591C45.9545 25.1591 40.9943 26.5653 36.8693 29.3778C32.7443 32.1903 29.7954 36.1023 28.0227 41.1136L27.2045 41.1136L27.2045 0L0 0L0 104.727L28.2272 104.727L28.2272 104.727Z" style="fill:#FFFFFF;mix-blend-mode:normal;" transform="translate(494.682 0.001)" />
    <path id="Path" d="M0 0L30.8864 104.727L58.0909 104.727L75.8864 46.2273L76.7045 46.2273L94.5 104.727L121.705 104.727L152.591 0L120.886 0L106.568 64.6364L105.75 64.6364L88.7727 0L63.8181 0L46.8409 64.4319C46.8409 64.4319 49.7903 80.4659 46.0062 64.3579C42.2221 48.25 31.7045 0 31.7045 0L0 0L0 0Z" style="fill:#FFFFFF;mix-blend-mode:normal;" transform="translate(334.477 0)" />
  </g>
</svg>