<?xml version="1.0" encoding="utf-8"?>
<svg width="48px" height="48px" viewBox="0 0 48 48" version="1.1" xmlns:xlink="http://www.w3.org/1999/xlink" xmlns="http://www.w3.org/2000/svg">
  <g id="Group">
    <g id="Group">
      <g id="Group" transform="translate(0 14.016365)">
        <path d="M27.4537 0.333008C26.8017 0.111003 26.1063 0 25.3675 0L6.67565 0C4.83214 0 3.25865 0.691199 1.95519 2.07359C0.651731 3.45599 0 5.12475 0 7.07994L0 26.9038C0 28.8589 0.651731 30.5277 1.95519 31.9101C3.25865 33.2925 4.83214 33.9836 6.67565 33.9836L25.3675 33.9836C27.211 33.9836 28.7845 33.2925 30.088 31.9101C31.3914 30.5277 32.0431 28.8589 32.0431 26.9038L32.0431 10.3119C30.9116 11.3315 29.5765 12.7221 28.0377 14.4837L28.0377 26.9037C28.0377 28.468 26.8424 29.7357 25.3675 29.7357L6.67563 29.7357C5.20069 29.7357 4.00537 28.468 4.00537 26.9037L4.00537 7.07993C4.00537 5.51565 5.20069 4.24795 6.67563 4.24795L24.8403 4.24795C25.2843 3.62412 26.1131 2.38392 27.3266 0.527384C27.3691 0.462337 27.4115 0.397545 27.4537 0.333008Z" id="Vector-Subtract" fill="#2DD54D" fill-rule="evenodd" stroke="none" />
        <path d="M26.6992 23.4445L24.2991 17.8347L26.9431 17.2897L26.6992 23.4445Z" id="Triangle" fill="#2DD54D" fill-rule="evenodd" stroke="none" />
        <path d="M17.6188 28.3461L14.3803 28.912L14.6529 26.8554L17.6188 28.3461Z" id="Triangle" fill="#2DD54D" fill-rule="evenodd" stroke="none" />
      </g>
      <path d="M7.01246 20.3925L6.16647 20.9114C6.04834 20.8155 6.33729 28.995 13.0466 34.0426C13.0466 34.0426 12.1969 35.0813 12.1239 35.306C12.0986 35.3841 17.0236 39.8281 17.0236 39.8281L18.6205 38.5912L20.3437 40.0739L19.7803 42.432L22.3329 43.0274L25.7182 39.4615L24.8808 36.768L22.6411 37.704L21.2906 35.5778L22.2876 34.2806L20.7471 32.4777C20.9767 31.4463 26.8371 24.3194 30.2303 21.3738C34.8836 17.3342 44.8666 10.5418 47.9287 5.14841C48.5939 3.97673 44.421 -0.889678 42.9995 0.142759C37.142 4.39713 30.3443 16.1923 27.3147 20.4134C25.0328 23.5928 20.2138 28.7085 18.6363 30.8001L17.0782 29.3898L15.4789 31.1243C11.5358 28.6953 10.2631 24.3552 9.73994 19.2689L8.31794 19.9203C8.48293 23.2945 8.86491 25.4562 10.1186 27.9085C10.1186 27.9085 7.39926 25.0806 7.01246 20.3925Z" id="Vector" fill="#D3E1D0" fill-rule="evenodd" stroke="none" />
    </g>
  </g>
</svg>